<?xml version="1.0" encoding="UTF-8" standalone="no"?>
<svg
   width="29.000002mm"
   height="29mm"
   version="1.1"
   id="svg6034"
   xmlns="http://www.w3.org/2000/svg"
   xmlns:svg="http://www.w3.org/2000/svg">
  <defs
     id="defs6038" />
  <rect
     x="0"
     y="0"
     width="1mm"
     height="1mm"
     id="rect5166" />
  <rect
     x="3.7795277"
     y="0"
     width="1mm"
     height="1mm"
     id="rect5168" />
  <rect
     x="7.5590553"
     y="0"
     width="1mm"
     height="1mm"
     id="rect5170" />
  <rect
     x="11.338583"
     y="0"
     width="1mm"
     height="1mm"
     id="rect5172" />
  <rect
     x="15.118111"
     y="0"
     width="1mm"
     height="1mm"
     id="rect5174" />
  <rect
     x="18.897636"
     y="0"
     width="1mm"
     height="1mm"
     id="rect5176" />
  <rect
     x="22.677166"
     y="0"
     width="1mm"
     height="1mm"
     id="rect5178" />
  <rect
     x="41.574802"
     y="0"
     width="1mm"
     height="1mm"
     id="rect5180" />
  <rect
     x="56.692909"
     y="0"
     width="1mm"
     height="1mm"
     id="rect5182" />
  <rect
     x="71.81102"
     y="0"
     width="1mm"
     height="1mm"
     id="rect5184" />
  <rect
     x="83.149605"
     y="0"
     width="1mm"
     height="1mm"
     id="rect5186" />
  <rect
     x="86.929131"
     y="0"
     width="1mm"
     height="1mm"
     id="rect5188" />
  <rect
     x="90.708656"
     y="0"
     width="1mm"
     height="1mm"
     id="rect5190" />
  <rect
     x="94.48819"
     y="0"
     width="1mm"
     height="1mm"
     id="rect5192" />
  <rect
     x="98.267723"
     y="0"
     width="1mm"
     height="1mm"
     id="rect5194" />
  <rect
     x="102.04724"
     y="0"
     width="1mm"
     height="1mm"
     id="rect5196" />
  <rect
     x="105.82678"
     y="0"
     width="1mm"
     height="1mm"
     id="rect5198" />
  <rect
     x="0"
     y="3.7795277"
     width="1mm"
     height="1mm"
     id="rect5200" />
  <rect
     x="22.677166"
     y="3.7795277"
     width="1mm"
     height="1mm"
     id="rect5202" />
  <rect
     x="30.236221"
     y="3.7795277"
     width="1mm"
     height="1mm"
     id="rect5204" />
  <rect
     x="37.795277"
     y="3.7795277"
     width="1mm"
     height="1mm"
     id="rect5206" />
  <rect
     x="45.354332"
     y="3.7795277"
     width="1mm"
     height="1mm"
     id="rect5208" />
  <rect
     x="49.133858"
     y="3.7795277"
     width="1mm"
     height="1mm"
     id="rect5210" />
  <rect
     x="52.913383"
     y="3.7795277"
     width="1mm"
     height="1mm"
     id="rect5212" />
  <rect
     x="56.692909"
     y="3.7795277"
     width="1mm"
     height="1mm"
     id="rect5214" />
  <rect
     x="60.472443"
     y="3.7795277"
     width="1mm"
     height="1mm"
     id="rect5216" />
  <rect
     x="64.251968"
     y="3.7795277"
     width="1mm"
     height="1mm"
     id="rect5218" />
  <rect
     x="68.031494"
     y="3.7795277"
     width="1mm"
     height="1mm"
     id="rect5220" />
  <rect
     x="71.81102"
     y="3.7795277"
     width="1mm"
     height="1mm"
     id="rect5222" />
  <rect
     x="83.149605"
     y="3.7795277"
     width="1mm"
     height="1mm"
     id="rect5224" />
  <rect
     x="105.82678"
     y="3.7795277"
     width="1mm"
     height="1mm"
     id="rect5226" />
  <rect
     x="0"
     y="7.5590553"
     width="1mm"
     height="1mm"
     id="rect5228" />
  <rect
     x="7.5590553"
     y="7.5590553"
     width="1mm"
     height="1mm"
     id="rect5230" />
  <rect
     x="11.338583"
     y="7.5590553"
     width="1mm"
     height="1mm"
     id="rect5232" />
  <rect
     x="15.118111"
     y="7.5590553"
     width="1mm"
     height="1mm"
     id="rect5234" />
  <rect
     x="22.677166"
     y="7.5590553"
     width="1mm"
     height="1mm"
     id="rect5236" />
  <rect
     x="34.015747"
     y="7.5590553"
     width="1mm"
     height="1mm"
     id="rect5238" />
  <rect
     x="37.795277"
     y="7.5590553"
     width="1mm"
     height="1mm"
     id="rect5240" />
  <rect
     x="41.574802"
     y="7.5590553"
     width="1mm"
     height="1mm"
     id="rect5242" />
  <rect
     x="45.354332"
     y="7.5590553"
     width="1mm"
     height="1mm"
     id="rect5244" />
  <rect
     x="56.692909"
     y="7.5590553"
     width="1mm"
     height="1mm"
     id="rect5246" />
  <rect
     x="60.472443"
     y="7.5590553"
     width="1mm"
     height="1mm"
     id="rect5248" />
  <rect
     x="75.590553"
     y="7.5590553"
     width="1mm"
     height="1mm"
     id="rect5250" />
  <rect
     x="83.149605"
     y="7.5590553"
     width="1mm"
     height="1mm"
     id="rect5252" />
  <rect
     x="90.708656"
     y="7.5590553"
     width="1mm"
     height="1mm"
     id="rect5254" />
  <rect
     x="94.48819"
     y="7.5590553"
     width="1mm"
     height="1mm"
     id="rect5256" />
  <rect
     x="98.267723"
     y="7.5590553"
     width="1mm"
     height="1mm"
     id="rect5258" />
  <rect
     x="105.82678"
     y="7.5590553"
     width="1mm"
     height="1mm"
     id="rect5260" />
  <rect
     x="0"
     y="11.338583"
     width="1mm"
     height="1mm"
     id="rect5262" />
  <rect
     x="7.5590553"
     y="11.338583"
     width="1mm"
     height="1mm"
     id="rect5264" />
  <rect
     x="11.338583"
     y="11.338583"
     width="1mm"
     height="1mm"
     id="rect5266" />
  <rect
     x="15.118111"
     y="11.338583"
     width="1mm"
     height="1mm"
     id="rect5268" />
  <rect
     x="22.677166"
     y="11.338583"
     width="1mm"
     height="1mm"
     id="rect5270" />
  <rect
     x="34.015747"
     y="11.338583"
     width="1mm"
     height="1mm"
     id="rect5272" />
  <rect
     x="41.574802"
     y="11.338583"
     width="1mm"
     height="1mm"
     id="rect5274" />
  <rect
     x="45.354332"
     y="11.338583"
     width="1mm"
     height="1mm"
     id="rect5276" />
  <rect
     x="52.913383"
     y="11.338583"
     width="1mm"
     height="1mm"
     id="rect5278" />
  <rect
     x="56.692909"
     y="11.338583"
     width="1mm"
     height="1mm"
     id="rect5280" />
  <rect
     x="60.472443"
     y="11.338583"
     width="1mm"
     height="1mm"
     id="rect5282" />
  <rect
     x="68.031494"
     y="11.338583"
     width="1mm"
     height="1mm"
     id="rect5284" />
  <rect
     x="83.149605"
     y="11.338583"
     width="1mm"
     height="1mm"
     id="rect5286" />
  <rect
     x="90.708656"
     y="11.338583"
     width="1mm"
     height="1mm"
     id="rect5288" />
  <rect
     x="94.48819"
     y="11.338583"
     width="1mm"
     height="1mm"
     id="rect5290" />
  <rect
     x="98.267723"
     y="11.338583"
     width="1mm"
     height="1mm"
     id="rect5292" />
  <rect
     x="105.82678"
     y="11.338583"
     width="1mm"
     height="1mm"
     id="rect5294" />
  <rect
     x="0"
     y="15.118111"
     width="1mm"
     height="1mm"
     id="rect5296" />
  <rect
     x="7.5590553"
     y="15.118111"
     width="1mm"
     height="1mm"
     id="rect5298" />
  <rect
     x="11.338583"
     y="15.118111"
     width="1mm"
     height="1mm"
     id="rect5300" />
  <rect
     x="15.118111"
     y="15.118111"
     width="1mm"
     height="1mm"
     id="rect5302" />
  <rect
     x="22.677166"
     y="15.118111"
     width="1mm"
     height="1mm"
     id="rect5304" />
  <rect
     x="30.236221"
     y="15.118111"
     width="1mm"
     height="1mm"
     id="rect5306" />
  <rect
     x="34.015747"
     y="15.118111"
     width="1mm"
     height="1mm"
     id="rect5308" />
  <rect
     x="41.574802"
     y="15.118111"
     width="1mm"
     height="1mm"
     id="rect5310" />
  <rect
     x="49.133858"
     y="15.118111"
     width="1mm"
     height="1mm"
     id="rect5312" />
  <rect
     x="52.913383"
     y="15.118111"
     width="1mm"
     height="1mm"
     id="rect5314" />
  <rect
     x="56.692909"
     y="15.118111"
     width="1mm"
     height="1mm"
     id="rect5316" />
  <rect
     x="68.031494"
     y="15.118111"
     width="1mm"
     height="1mm"
     id="rect5318" />
  <rect
     x="71.81102"
     y="15.118111"
     width="1mm"
     height="1mm"
     id="rect5320" />
  <rect
     x="83.149605"
     y="15.118111"
     width="1mm"
     height="1mm"
     id="rect5322" />
  <rect
     x="90.708656"
     y="15.118111"
     width="1mm"
     height="1mm"
     id="rect5324" />
  <rect
     x="94.48819"
     y="15.118111"
     width="1mm"
     height="1mm"
     id="rect5326" />
  <rect
     x="98.267723"
     y="15.118111"
     width="1mm"
     height="1mm"
     id="rect5328" />
  <rect
     x="105.82678"
     y="15.118111"
     width="1mm"
     height="1mm"
     id="rect5330" />
  <rect
     x="0"
     y="18.897636"
     width="1mm"
     height="1mm"
     id="rect5332" />
  <rect
     x="22.677166"
     y="18.897636"
     width="1mm"
     height="1mm"
     id="rect5334" />
  <rect
     x="34.015747"
     y="18.897636"
     width="1mm"
     height="1mm"
     id="rect5336" />
  <rect
     x="41.574802"
     y="18.897636"
     width="1mm"
     height="1mm"
     id="rect5338" />
  <rect
     x="49.133858"
     y="18.897636"
     width="1mm"
     height="1mm"
     id="rect5340" />
  <rect
     x="52.913383"
     y="18.897636"
     width="1mm"
     height="1mm"
     id="rect5342" />
  <rect
     x="56.692909"
     y="18.897636"
     width="1mm"
     height="1mm"
     id="rect5344" />
  <rect
     x="60.472443"
     y="18.897636"
     width="1mm"
     height="1mm"
     id="rect5346" />
  <rect
     x="71.81102"
     y="18.897636"
     width="1mm"
     height="1mm"
     id="rect5348" />
  <rect
     x="83.149605"
     y="18.897636"
     width="1mm"
     height="1mm"
     id="rect5350" />
  <rect
     x="105.82678"
     y="18.897636"
     width="1mm"
     height="1mm"
     id="rect5352" />
  <rect
     x="0"
     y="22.677166"
     width="1mm"
     height="1mm"
     id="rect5354" />
  <rect
     x="3.7795277"
     y="22.677166"
     width="1mm"
     height="1mm"
     id="rect5356" />
  <rect
     x="7.5590553"
     y="22.677166"
     width="1mm"
     height="1mm"
     id="rect5358" />
  <rect
     x="11.338583"
     y="22.677166"
     width="1mm"
     height="1mm"
     id="rect5360" />
  <rect
     x="15.118111"
     y="22.677166"
     width="1mm"
     height="1mm"
     id="rect5362" />
  <rect
     x="18.897636"
     y="22.677166"
     width="1mm"
     height="1mm"
     id="rect5364" />
  <rect
     x="22.677166"
     y="22.677166"
     width="1mm"
     height="1mm"
     id="rect5366" />
  <rect
     x="30.236221"
     y="22.677166"
     width="1mm"
     height="1mm"
     id="rect5368" />
  <rect
     x="37.795277"
     y="22.677166"
     width="1mm"
     height="1mm"
     id="rect5370" />
  <rect
     x="45.354332"
     y="22.677166"
     width="1mm"
     height="1mm"
     id="rect5372" />
  <rect
     x="52.913383"
     y="22.677166"
     width="1mm"
     height="1mm"
     id="rect5374" />
  <rect
     x="60.472443"
     y="22.677166"
     width="1mm"
     height="1mm"
     id="rect5376" />
  <rect
     x="68.031494"
     y="22.677166"
     width="1mm"
     height="1mm"
     id="rect5378" />
  <rect
     x="75.590553"
     y="22.677166"
     width="1mm"
     height="1mm"
     id="rect5380" />
  <rect
     x="83.149605"
     y="22.677166"
     width="1mm"
     height="1mm"
     id="rect5382" />
  <rect
     x="86.929131"
     y="22.677166"
     width="1mm"
     height="1mm"
     id="rect5384" />
  <rect
     x="90.708656"
     y="22.677166"
     width="1mm"
     height="1mm"
     id="rect5386" />
  <rect
     x="94.48819"
     y="22.677166"
     width="1mm"
     height="1mm"
     id="rect5388" />
  <rect
     x="98.267723"
     y="22.677166"
     width="1mm"
     height="1mm"
     id="rect5390" />
  <rect
     x="102.04724"
     y="22.677166"
     width="1mm"
     height="1mm"
     id="rect5392" />
  <rect
     x="105.82678"
     y="22.677166"
     width="1mm"
     height="1mm"
     id="rect5394" />
  <rect
     x="34.015747"
     y="26.456692"
     width="1mm"
     height="1mm"
     id="rect5396" />
  <rect
     x="49.133858"
     y="26.456692"
     width="1mm"
     height="1mm"
     id="rect5398" />
  <rect
     x="52.913383"
     y="26.456692"
     width="1mm"
     height="1mm"
     id="rect5400" />
  <rect
     x="56.692909"
     y="26.456692"
     width="1mm"
     height="1mm"
     id="rect5402" />
  <rect
     x="60.472443"
     y="26.456692"
     width="1mm"
     height="1mm"
     id="rect5404" />
  <rect
     x="64.251968"
     y="26.456692"
     width="1mm"
     height="1mm"
     id="rect5406" />
  <rect
     x="71.81102"
     y="26.456692"
     width="1mm"
     height="1mm"
     id="rect5408" />
  <rect
     x="75.590553"
     y="26.456692"
     width="1mm"
     height="1mm"
     id="rect5410" />
  <rect
     x="0"
     y="30.236221"
     width="1mm"
     height="1mm"
     id="rect5412" />
  <rect
     x="7.5590553"
     y="30.236221"
     width="1mm"
     height="1mm"
     id="rect5414" />
  <rect
     x="15.118111"
     y="30.236221"
     width="1mm"
     height="1mm"
     id="rect5416" />
  <rect
     x="22.677166"
     y="30.236221"
     width="1mm"
     height="1mm"
     id="rect5418" />
  <rect
     x="34.015747"
     y="30.236221"
     width="1mm"
     height="1mm"
     id="rect5420" />
  <rect
     x="37.795277"
     y="30.236221"
     width="1mm"
     height="1mm"
     id="rect5422" />
  <rect
     x="41.574802"
     y="30.236221"
     width="1mm"
     height="1mm"
     id="rect5424" />
  <rect
     x="45.354332"
     y="30.236221"
     width="1mm"
     height="1mm"
     id="rect5426" />
  <rect
     x="49.133858"
     y="30.236221"
     width="1mm"
     height="1mm"
     id="rect5428" />
  <rect
     x="60.472443"
     y="30.236221"
     width="1mm"
     height="1mm"
     id="rect5430" />
  <rect
     x="64.251968"
     y="30.236221"
     width="1mm"
     height="1mm"
     id="rect5432" />
  <rect
     x="68.031494"
     y="30.236221"
     width="1mm"
     height="1mm"
     id="rect5434" />
  <rect
     x="90.708656"
     y="30.236221"
     width="1mm"
     height="1mm"
     id="rect5436" />
  <rect
     x="102.04724"
     y="30.236221"
     width="1mm"
     height="1mm"
     id="rect5438" />
  <rect
     x="11.338583"
     y="34.015747"
     width="1mm"
     height="1mm"
     id="rect5440" />
  <rect
     x="15.118111"
     y="34.015747"
     width="1mm"
     height="1mm"
     id="rect5442" />
  <rect
     x="18.897636"
     y="34.015747"
     width="1mm"
     height="1mm"
     id="rect5444" />
  <rect
     x="26.456692"
     y="34.015747"
     width="1mm"
     height="1mm"
     id="rect5446" />
  <rect
     x="30.236221"
     y="34.015747"
     width="1mm"
     height="1mm"
     id="rect5448" />
  <rect
     x="37.795277"
     y="34.015747"
     width="1mm"
     height="1mm"
     id="rect5450" />
  <rect
     x="41.574802"
     y="34.015747"
     width="1mm"
     height="1mm"
     id="rect5452" />
  <rect
     x="49.133858"
     y="34.015747"
     width="1mm"
     height="1mm"
     id="rect5454" />
  <rect
     x="60.472443"
     y="34.015747"
     width="1mm"
     height="1mm"
     id="rect5456" />
  <rect
     x="75.590553"
     y="34.015747"
     width="1mm"
     height="1mm"
     id="rect5458" />
  <rect
     x="79.370079"
     y="34.015747"
     width="1mm"
     height="1mm"
     id="rect5460" />
  <rect
     x="83.149605"
     y="34.015747"
     width="1mm"
     height="1mm"
     id="rect5462" />
  <rect
     x="94.48819"
     y="34.015747"
     width="1mm"
     height="1mm"
     id="rect5464" />
  <rect
     x="105.82678"
     y="34.015747"
     width="1mm"
     height="1mm"
     id="rect5466" />
  <rect
     x="0"
     y="37.795277"
     width="1mm"
     height="1mm"
     id="rect5468" />
  <rect
     x="7.5590553"
     y="37.795277"
     width="1mm"
     height="1mm"
     id="rect5470" />
  <rect
     x="11.338583"
     y="37.795277"
     width="1mm"
     height="1mm"
     id="rect5472" />
  <rect
     x="18.897636"
     y="37.795277"
     width="1mm"
     height="1mm"
     id="rect5474" />
  <rect
     x="22.677166"
     y="37.795277"
     width="1mm"
     height="1mm"
     id="rect5476" />
  <rect
     x="26.456692"
     y="37.795277"
     width="1mm"
     height="1mm"
     id="rect5478" />
  <rect
     x="45.354332"
     y="37.795277"
     width="1mm"
     height="1mm"
     id="rect5480" />
  <rect
     x="60.472443"
     y="37.795277"
     width="1mm"
     height="1mm"
     id="rect5482" />
  <rect
     x="64.251968"
     y="37.795277"
     width="1mm"
     height="1mm"
     id="rect5484" />
  <rect
     x="79.370079"
     y="37.795277"
     width="1mm"
     height="1mm"
     id="rect5486" />
  <rect
     x="86.929131"
     y="37.795277"
     width="1mm"
     height="1mm"
     id="rect5488" />
  <rect
     x="90.708656"
     y="37.795277"
     width="1mm"
     height="1mm"
     id="rect5490" />
  <rect
     x="98.267723"
     y="37.795277"
     width="1mm"
     height="1mm"
     id="rect5492" />
  <rect
     x="102.04724"
     y="37.795277"
     width="1mm"
     height="1mm"
     id="rect5494" />
  <rect
     x="105.82678"
     y="37.795277"
     width="1mm"
     height="1mm"
     id="rect5496" />
  <rect
     x="3.7795277"
     y="41.574802"
     width="1mm"
     height="1mm"
     id="rect5498" />
  <rect
     x="7.5590553"
     y="41.574802"
     width="1mm"
     height="1mm"
     id="rect5500" />
  <rect
     x="11.338583"
     y="41.574802"
     width="1mm"
     height="1mm"
     id="rect5502" />
  <rect
     x="15.118111"
     y="41.574802"
     width="1mm"
     height="1mm"
     id="rect5504" />
  <rect
     x="37.795277"
     y="41.574802"
     width="1mm"
     height="1mm"
     id="rect5506" />
  <rect
     x="49.133858"
     y="41.574802"
     width="1mm"
     height="1mm"
     id="rect5508" />
  <rect
     x="52.913383"
     y="41.574802"
     width="1mm"
     height="1mm"
     id="rect5510" />
  <rect
     x="64.251968"
     y="41.574802"
     width="1mm"
     height="1mm"
     id="rect5512" />
  <rect
     x="71.81102"
     y="41.574802"
     width="1mm"
     height="1mm"
     id="rect5514" />
  <rect
     x="83.149605"
     y="41.574802"
     width="1mm"
     height="1mm"
     id="rect5516" />
  <rect
     x="90.708656"
     y="41.574802"
     width="1mm"
     height="1mm"
     id="rect5518" />
  <rect
     x="102.04724"
     y="41.574802"
     width="1mm"
     height="1mm"
     id="rect5520" />
  <rect
     x="0"
     y="45.354332"
     width="1mm"
     height="1mm"
     id="rect5522" />
  <rect
     x="3.7795277"
     y="45.354332"
     width="1mm"
     height="1mm"
     id="rect5524" />
  <rect
     x="7.5590553"
     y="45.354332"
     width="1mm"
     height="1mm"
     id="rect5526" />
  <rect
     x="15.118111"
     y="45.354332"
     width="1mm"
     height="1mm"
     id="rect5528" />
  <rect
     x="22.677166"
     y="45.354332"
     width="1mm"
     height="1mm"
     id="rect5530" />
  <rect
     x="34.015747"
     y="45.354332"
     width="1mm"
     height="1mm"
     id="rect5532" />
  <rect
     x="45.354332"
     y="45.354332"
     width="1mm"
     height="1mm"
     id="rect5534" />
  <rect
     x="49.133858"
     y="45.354332"
     width="1mm"
     height="1mm"
     id="rect5536" />
  <rect
     x="52.913383"
     y="45.354332"
     width="1mm"
     height="1mm"
     id="rect5538" />
  <rect
     x="64.251968"
     y="45.354332"
     width="1mm"
     height="1mm"
     id="rect5540" />
  <rect
     x="71.81102"
     y="45.354332"
     width="1mm"
     height="1mm"
     id="rect5542" />
  <rect
     x="75.590553"
     y="45.354332"
     width="1mm"
     height="1mm"
     id="rect5544" />
  <rect
     x="79.370079"
     y="45.354332"
     width="1mm"
     height="1mm"
     id="rect5546" />
  <rect
     x="83.149605"
     y="45.354332"
     width="1mm"
     height="1mm"
     id="rect5548" />
  <rect
     x="94.48819"
     y="45.354332"
     width="1mm"
     height="1mm"
     id="rect5550" />
  <rect
     x="102.04724"
     y="45.354332"
     width="1mm"
     height="1mm"
     id="rect5552" />
  <rect
     x="105.82678"
     y="45.354332"
     width="1mm"
     height="1mm"
     id="rect5554" />
  <rect
     x="3.7795277"
     y="49.133858"
     width="1mm"
     height="1mm"
     id="rect5556" />
  <rect
     x="11.338583"
     y="49.133858"
     width="1mm"
     height="1mm"
     id="rect5558" />
  <rect
     x="18.897636"
     y="49.133858"
     width="1mm"
     height="1mm"
     id="rect5560" />
  <rect
     x="30.236221"
     y="49.133858"
     width="1mm"
     height="1mm"
     id="rect5562" />
  <rect
     x="34.015747"
     y="49.133858"
     width="1mm"
     height="1mm"
     id="rect5564" />
  <rect
     x="37.795277"
     y="49.133858"
     width="1mm"
     height="1mm"
     id="rect5566" />
  <rect
     x="41.574802"
     y="49.133858"
     width="1mm"
     height="1mm"
     id="rect5568" />
  <rect
     x="60.472443"
     y="49.133858"
     width="1mm"
     height="1mm"
     id="rect5570" />
  <rect
     x="75.590553"
     y="49.133858"
     width="1mm"
     height="1mm"
     id="rect5572" />
  <rect
     x="79.370079"
     y="49.133858"
     width="1mm"
     height="1mm"
     id="rect5574" />
  <rect
     x="83.149605"
     y="49.133858"
     width="1mm"
     height="1mm"
     id="rect5576" />
  <rect
     x="94.48819"
     y="49.133858"
     width="1mm"
     height="1mm"
     id="rect5578" />
  <rect
     x="105.82678"
     y="49.133858"
     width="1mm"
     height="1mm"
     id="rect5580" />
  <rect
     x="7.5590553"
     y="52.913383"
     width="1mm"
     height="1mm"
     id="rect5582" />
  <rect
     x="18.897636"
     y="52.913383"
     width="1mm"
     height="1mm"
     id="rect5584" />
  <rect
     x="22.677166"
     y="52.913383"
     width="1mm"
     height="1mm"
     id="rect5586" />
  <rect
     x="26.456692"
     y="52.913383"
     width="1mm"
     height="1mm"
     id="rect5588" />
  <rect
     x="45.354332"
     y="52.913383"
     width="1mm"
     height="1mm"
     id="rect5590" />
  <rect
     x="49.133858"
     y="52.913383"
     width="1mm"
     height="1mm"
     id="rect5592" />
  <rect
     x="68.031494"
     y="52.913383"
     width="1mm"
     height="1mm"
     id="rect5594" />
  <rect
     x="83.149605"
     y="52.913383"
     width="1mm"
     height="1mm"
     id="rect5596" />
  <rect
     x="86.929131"
     y="52.913383"
     width="1mm"
     height="1mm"
     id="rect5598" />
  <rect
     x="90.708656"
     y="52.913383"
     width="1mm"
     height="1mm"
     id="rect5600" />
  <rect
     x="94.48819"
     y="52.913383"
     width="1mm"
     height="1mm"
     id="rect5602" />
  <rect
     x="102.04724"
     y="52.913383"
     width="1mm"
     height="1mm"
     id="rect5604" />
  <rect
     x="105.82678"
     y="52.913383"
     width="1mm"
     height="1mm"
     id="rect5606" />
  <rect
     x="7.5590553"
     y="56.692909"
     width="1mm"
     height="1mm"
     id="rect5608" />
  <rect
     x="11.338583"
     y="56.692909"
     width="1mm"
     height="1mm"
     id="rect5610" />
  <rect
     x="26.456692"
     y="56.692909"
     width="1mm"
     height="1mm"
     id="rect5612" />
  <rect
     x="30.236221"
     y="56.692909"
     width="1mm"
     height="1mm"
     id="rect5614" />
  <rect
     x="34.015747"
     y="56.692909"
     width="1mm"
     height="1mm"
     id="rect5616" />
  <rect
     x="49.133858"
     y="56.692909"
     width="1mm"
     height="1mm"
     id="rect5618" />
  <rect
     x="52.913383"
     y="56.692909"
     width="1mm"
     height="1mm"
     id="rect5620" />
  <rect
     x="56.692909"
     y="56.692909"
     width="1mm"
     height="1mm"
     id="rect5622" />
  <rect
     x="60.472443"
     y="56.692909"
     width="1mm"
     height="1mm"
     id="rect5624" />
  <rect
     x="64.251968"
     y="56.692909"
     width="1mm"
     height="1mm"
     id="rect5626" />
  <rect
     x="68.031494"
     y="56.692909"
     width="1mm"
     height="1mm"
     id="rect5628" />
  <rect
     x="75.590553"
     y="56.692909"
     width="1mm"
     height="1mm"
     id="rect5630" />
  <rect
     x="83.149605"
     y="56.692909"
     width="1mm"
     height="1mm"
     id="rect5632" />
  <rect
     x="94.48819"
     y="56.692909"
     width="1mm"
     height="1mm"
     id="rect5634" />
  <rect
     x="102.04724"
     y="56.692909"
     width="1mm"
     height="1mm"
     id="rect5636" />
  <rect
     x="11.338583"
     y="60.472443"
     width="1mm"
     height="1mm"
     id="rect5638" />
  <rect
     x="15.118111"
     y="60.472443"
     width="1mm"
     height="1mm"
     id="rect5640" />
  <rect
     x="18.897636"
     y="60.472443"
     width="1mm"
     height="1mm"
     id="rect5642" />
  <rect
     x="22.677166"
     y="60.472443"
     width="1mm"
     height="1mm"
     id="rect5644" />
  <rect
     x="26.456692"
     y="60.472443"
     width="1mm"
     height="1mm"
     id="rect5646" />
  <rect
     x="34.015747"
     y="60.472443"
     width="1mm"
     height="1mm"
     id="rect5648" />
  <rect
     x="37.795277"
     y="60.472443"
     width="1mm"
     height="1mm"
     id="rect5650" />
  <rect
     x="52.913383"
     y="60.472443"
     width="1mm"
     height="1mm"
     id="rect5652" />
  <rect
     x="56.692909"
     y="60.472443"
     width="1mm"
     height="1mm"
     id="rect5654" />
  <rect
     x="60.472443"
     y="60.472443"
     width="1mm"
     height="1mm"
     id="rect5656" />
  <rect
     x="64.251968"
     y="60.472443"
     width="1mm"
     height="1mm"
     id="rect5658" />
  <rect
     x="75.590553"
     y="60.472443"
     width="1mm"
     height="1mm"
     id="rect5660" />
  <rect
     x="79.370079"
     y="60.472443"
     width="1mm"
     height="1mm"
     id="rect5662" />
  <rect
     x="83.149605"
     y="60.472443"
     width="1mm"
     height="1mm"
     id="rect5664" />
  <rect
     x="94.48819"
     y="60.472443"
     width="1mm"
     height="1mm"
     id="rect5666" />
  <rect
     x="102.04724"
     y="60.472443"
     width="1mm"
     height="1mm"
     id="rect5668" />
  <rect
     x="105.82678"
     y="60.472443"
     width="1mm"
     height="1mm"
     id="rect5670" />
  <rect
     x="3.7795277"
     y="64.251968"
     width="1mm"
     height="1mm"
     id="rect5672" />
  <rect
     x="7.5590553"
     y="64.251968"
     width="1mm"
     height="1mm"
     id="rect5674" />
  <rect
     x="11.338583"
     y="64.251968"
     width="1mm"
     height="1mm"
     id="rect5676" />
  <rect
     x="18.897636"
     y="64.251968"
     width="1mm"
     height="1mm"
     id="rect5678" />
  <rect
     x="34.015747"
     y="64.251968"
     width="1mm"
     height="1mm"
     id="rect5680" />
  <rect
     x="37.795277"
     y="64.251968"
     width="1mm"
     height="1mm"
     id="rect5682" />
  <rect
     x="41.574802"
     y="64.251968"
     width="1mm"
     height="1mm"
     id="rect5684" />
  <rect
     x="45.354332"
     y="64.251968"
     width="1mm"
     height="1mm"
     id="rect5686" />
  <rect
     x="75.590553"
     y="64.251968"
     width="1mm"
     height="1mm"
     id="rect5688" />
  <rect
     x="79.370079"
     y="64.251968"
     width="1mm"
     height="1mm"
     id="rect5690" />
  <rect
     x="83.149605"
     y="64.251968"
     width="1mm"
     height="1mm"
     id="rect5692" />
  <rect
     x="94.48819"
     y="64.251968"
     width="1mm"
     height="1mm"
     id="rect5694" />
  <rect
     x="98.267723"
     y="64.251968"
     width="1mm"
     height="1mm"
     id="rect5696" />
  <rect
     x="105.82678"
     y="64.251968"
     width="1mm"
     height="1mm"
     id="rect5698" />
  <rect
     x="0"
     y="68.031494"
     width="1mm"
     height="1mm"
     id="rect5700" />
  <rect
     x="7.5590553"
     y="68.031494"
     width="1mm"
     height="1mm"
     id="rect5702" />
  <rect
     x="22.677166"
     y="68.031494"
     width="1mm"
     height="1mm"
     id="rect5704" />
  <rect
     x="26.456692"
     y="68.031494"
     width="1mm"
     height="1mm"
     id="rect5706" />
  <rect
     x="34.015747"
     y="68.031494"
     width="1mm"
     height="1mm"
     id="rect5708" />
  <rect
     x="49.133858"
     y="68.031494"
     width="1mm"
     height="1mm"
     id="rect5710" />
  <rect
     x="60.472443"
     y="68.031494"
     width="1mm"
     height="1mm"
     id="rect5712" />
  <rect
     x="64.251968"
     y="68.031494"
     width="1mm"
     height="1mm"
     id="rect5714" />
  <rect
     x="75.590553"
     y="68.031494"
     width="1mm"
     height="1mm"
     id="rect5716" />
  <rect
     x="90.708656"
     y="68.031494"
     width="1mm"
     height="1mm"
     id="rect5718" />
  <rect
     x="102.04724"
     y="68.031494"
     width="1mm"
     height="1mm"
     id="rect5720" />
  <rect
     x="105.82678"
     y="68.031494"
     width="1mm"
     height="1mm"
     id="rect5722" />
  <rect
     x="3.7795277"
     y="71.81102"
     width="1mm"
     height="1mm"
     id="rect5724" />
  <rect
     x="7.5590553"
     y="71.81102"
     width="1mm"
     height="1mm"
     id="rect5726" />
  <rect
     x="11.338583"
     y="71.81102"
     width="1mm"
     height="1mm"
     id="rect5728" />
  <rect
     x="30.236221"
     y="71.81102"
     width="1mm"
     height="1mm"
     id="rect5730" />
  <rect
     x="37.795277"
     y="71.81102"
     width="1mm"
     height="1mm"
     id="rect5732" />
  <rect
     x="45.354332"
     y="71.81102"
     width="1mm"
     height="1mm"
     id="rect5734" />
  <rect
     x="56.692909"
     y="71.81102"
     width="1mm"
     height="1mm"
     id="rect5736" />
  <rect
     x="60.472443"
     y="71.81102"
     width="1mm"
     height="1mm"
     id="rect5738" />
  <rect
     x="64.251968"
     y="71.81102"
     width="1mm"
     height="1mm"
     id="rect5740" />
  <rect
     x="68.031494"
     y="71.81102"
     width="1mm"
     height="1mm"
     id="rect5742" />
  <rect
     x="75.590553"
     y="71.81102"
     width="1mm"
     height="1mm"
     id="rect5744" />
  <rect
     x="83.149605"
     y="71.81102"
     width="1mm"
     height="1mm"
     id="rect5746" />
  <rect
     x="94.48819"
     y="71.81102"
     width="1mm"
     height="1mm"
     id="rect5748" />
  <rect
     x="102.04724"
     y="71.81102"
     width="1mm"
     height="1mm"
     id="rect5750" />
  <rect
     x="0"
     y="75.590553"
     width="1mm"
     height="1mm"
     id="rect5752" />
  <rect
     x="7.5590553"
     y="75.590553"
     width="1mm"
     height="1mm"
     id="rect5754" />
  <rect
     x="11.338583"
     y="75.590553"
     width="1mm"
     height="1mm"
     id="rect5756" />
  <rect
     x="18.897636"
     y="75.590553"
     width="1mm"
     height="1mm"
     id="rect5758" />
  <rect
     x="22.677166"
     y="75.590553"
     width="1mm"
     height="1mm"
     id="rect5760" />
  <rect
     x="26.456692"
     y="75.590553"
     width="1mm"
     height="1mm"
     id="rect5762" />
  <rect
     x="30.236221"
     y="75.590553"
     width="1mm"
     height="1mm"
     id="rect5764" />
  <rect
     x="41.574802"
     y="75.590553"
     width="1mm"
     height="1mm"
     id="rect5766" />
  <rect
     x="45.354332"
     y="75.590553"
     width="1mm"
     height="1mm"
     id="rect5768" />
  <rect
     x="56.692909"
     y="75.590553"
     width="1mm"
     height="1mm"
     id="rect5770" />
  <rect
     x="60.472443"
     y="75.590553"
     width="1mm"
     height="1mm"
     id="rect5772" />
  <rect
     x="64.251968"
     y="75.590553"
     width="1mm"
     height="1mm"
     id="rect5774" />
  <rect
     x="68.031494"
     y="75.590553"
     width="1mm"
     height="1mm"
     id="rect5776" />
  <rect
     x="71.81102"
     y="75.590553"
     width="1mm"
     height="1mm"
     id="rect5778" />
  <rect
     x="75.590553"
     y="75.590553"
     width="1mm"
     height="1mm"
     id="rect5780" />
  <rect
     x="79.370079"
     y="75.590553"
     width="1mm"
     height="1mm"
     id="rect5782" />
  <rect
     x="83.149605"
     y="75.590553"
     width="1mm"
     height="1mm"
     id="rect5784" />
  <rect
     x="86.929131"
     y="75.590553"
     width="1mm"
     height="1mm"
     id="rect5786" />
  <rect
     x="90.708656"
     y="75.590553"
     width="1mm"
     height="1mm"
     id="rect5788" />
  <rect
     x="30.236221"
     y="79.370079"
     width="1mm"
     height="1mm"
     id="rect5790" />
  <rect
     x="34.015747"
     y="79.370079"
     width="1mm"
     height="1mm"
     id="rect5792" />
  <rect
     x="37.795277"
     y="79.370079"
     width="1mm"
     height="1mm"
     id="rect5794" />
  <rect
     x="41.574802"
     y="79.370079"
     width="1mm"
     height="1mm"
     id="rect5796" />
  <rect
     x="45.354332"
     y="79.370079"
     width="1mm"
     height="1mm"
     id="rect5798" />
  <rect
     x="49.133858"
     y="79.370079"
     width="1mm"
     height="1mm"
     id="rect5800" />
  <rect
     x="60.472443"
     y="79.370079"
     width="1mm"
     height="1mm"
     id="rect5802" />
  <rect
     x="71.81102"
     y="79.370079"
     width="1mm"
     height="1mm"
     id="rect5804" />
  <rect
     x="75.590553"
     y="79.370079"
     width="1mm"
     height="1mm"
     id="rect5806" />
  <rect
     x="90.708656"
     y="79.370079"
     width="1mm"
     height="1mm"
     id="rect5808" />
  <rect
     x="98.267723"
     y="79.370079"
     width="1mm"
     height="1mm"
     id="rect5810" />
  <rect
     x="102.04724"
     y="79.370079"
     width="1mm"
     height="1mm"
     id="rect5812" />
  <rect
     x="105.82678"
     y="79.370079"
     width="1mm"
     height="1mm"
     id="rect5814" />
  <rect
     x="0"
     y="83.149605"
     width="1mm"
     height="1mm"
     id="rect5816" />
  <rect
     x="3.7795277"
     y="83.149605"
     width="1mm"
     height="1mm"
     id="rect5818" />
  <rect
     x="7.5590553"
     y="83.149605"
     width="1mm"
     height="1mm"
     id="rect5820" />
  <rect
     x="11.338583"
     y="83.149605"
     width="1mm"
     height="1mm"
     id="rect5822" />
  <rect
     x="15.118111"
     y="83.149605"
     width="1mm"
     height="1mm"
     id="rect5824" />
  <rect
     x="18.897636"
     y="83.149605"
     width="1mm"
     height="1mm"
     id="rect5826" />
  <rect
     x="22.677166"
     y="83.149605"
     width="1mm"
     height="1mm"
     id="rect5828" />
  <rect
     x="45.354332"
     y="83.149605"
     width="1mm"
     height="1mm"
     id="rect5830" />
  <rect
     x="52.913383"
     y="83.149605"
     width="1mm"
     height="1mm"
     id="rect5832" />
  <rect
     x="64.251968"
     y="83.149605"
     width="1mm"
     height="1mm"
     id="rect5834" />
  <rect
     x="71.81102"
     y="83.149605"
     width="1mm"
     height="1mm"
     id="rect5836" />
  <rect
     x="75.590553"
     y="83.149605"
     width="1mm"
     height="1mm"
     id="rect5838" />
  <rect
     x="83.149605"
     y="83.149605"
     width="1mm"
     height="1mm"
     id="rect5840" />
  <rect
     x="90.708656"
     y="83.149605"
     width="1mm"
     height="1mm"
     id="rect5842" />
  <rect
     x="94.48819"
     y="83.149605"
     width="1mm"
     height="1mm"
     id="rect5844" />
  <rect
     x="102.04724"
     y="83.149605"
     width="1mm"
     height="1mm"
     id="rect5846" />
  <rect
     x="105.82678"
     y="83.149605"
     width="1mm"
     height="1mm"
     id="rect5848" />
  <rect
     x="0"
     y="86.929131"
     width="1mm"
     height="1mm"
     id="rect5850" />
  <rect
     x="22.677166"
     y="86.929131"
     width="1mm"
     height="1mm"
     id="rect5852" />
  <rect
     x="34.015747"
     y="86.929131"
     width="1mm"
     height="1mm"
     id="rect5854" />
  <rect
     x="49.133858"
     y="86.929131"
     width="1mm"
     height="1mm"
     id="rect5856" />
  <rect
     x="52.913383"
     y="86.929131"
     width="1mm"
     height="1mm"
     id="rect5858" />
  <rect
     x="56.692909"
     y="86.929131"
     width="1mm"
     height="1mm"
     id="rect5860" />
  <rect
     x="60.472443"
     y="86.929131"
     width="1mm"
     height="1mm"
     id="rect5862" />
  <rect
     x="64.251968"
     y="86.929131"
     width="1mm"
     height="1mm"
     id="rect5864" />
  <rect
     x="68.031494"
     y="86.929131"
     width="1mm"
     height="1mm"
     id="rect5866" />
  <rect
     x="71.81102"
     y="86.929131"
     width="1mm"
     height="1mm"
     id="rect5868" />
  <rect
     x="75.590553"
     y="86.929131"
     width="1mm"
     height="1mm"
     id="rect5870" />
  <rect
     x="90.708656"
     y="86.929131"
     width="1mm"
     height="1mm"
     id="rect5872" />
  <rect
     x="94.48819"
     y="86.929131"
     width="1mm"
     height="1mm"
     id="rect5874" />
  <rect
     x="102.04724"
     y="86.929131"
     width="1mm"
     height="1mm"
     id="rect5876" />
  <rect
     x="0"
     y="90.708656"
     width="1mm"
     height="1mm"
     id="rect5878" />
  <rect
     x="7.5590553"
     y="90.708656"
     width="1mm"
     height="1mm"
     id="rect5880" />
  <rect
     x="11.338583"
     y="90.708656"
     width="1mm"
     height="1mm"
     id="rect5882" />
  <rect
     x="15.118111"
     y="90.708656"
     width="1mm"
     height="1mm"
     id="rect5884" />
  <rect
     x="22.677166"
     y="90.708656"
     width="1mm"
     height="1mm"
     id="rect5886" />
  <rect
     x="30.236221"
     y="90.708656"
     width="1mm"
     height="1mm"
     id="rect5888" />
  <rect
     x="34.015747"
     y="90.708656"
     width="1mm"
     height="1mm"
     id="rect5890" />
  <rect
     x="37.795277"
     y="90.708656"
     width="1mm"
     height="1mm"
     id="rect5892" />
  <rect
     x="45.354332"
     y="90.708656"
     width="1mm"
     height="1mm"
     id="rect5894" />
  <rect
     x="52.913383"
     y="90.708656"
     width="1mm"
     height="1mm"
     id="rect5896" />
  <rect
     x="56.692909"
     y="90.708656"
     width="1mm"
     height="1mm"
     id="rect5898" />
  <rect
     x="60.472443"
     y="90.708656"
     width="1mm"
     height="1mm"
     id="rect5900" />
  <rect
     x="64.251968"
     y="90.708656"
     width="1mm"
     height="1mm"
     id="rect5902" />
  <rect
     x="75.590553"
     y="90.708656"
     width="1mm"
     height="1mm"
     id="rect5904" />
  <rect
     x="79.370079"
     y="90.708656"
     width="1mm"
     height="1mm"
     id="rect5906" />
  <rect
     x="83.149605"
     y="90.708656"
     width="1mm"
     height="1mm"
     id="rect5908" />
  <rect
     x="86.929131"
     y="90.708656"
     width="1mm"
     height="1mm"
     id="rect5910" />
  <rect
     x="90.708656"
     y="90.708656"
     width="1mm"
     height="1mm"
     id="rect5912" />
  <rect
     x="0"
     y="94.48819"
     width="1mm"
     height="1mm"
     id="rect5914" />
  <rect
     x="7.5590553"
     y="94.48819"
     width="1mm"
     height="1mm"
     id="rect5916" />
  <rect
     x="11.338583"
     y="94.48819"
     width="1mm"
     height="1mm"
     id="rect5918" />
  <rect
     x="15.118111"
     y="94.48819"
     width="1mm"
     height="1mm"
     id="rect5920" />
  <rect
     x="22.677166"
     y="94.48819"
     width="1mm"
     height="1mm"
     id="rect5922" />
  <rect
     x="41.574802"
     y="94.48819"
     width="1mm"
     height="1mm"
     id="rect5924" />
  <rect
     x="52.913383"
     y="94.48819"
     width="1mm"
     height="1mm"
     id="rect5926" />
  <rect
     x="60.472443"
     y="94.48819"
     width="1mm"
     height="1mm"
     id="rect5928" />
  <rect
     x="86.929131"
     y="94.48819"
     width="1mm"
     height="1mm"
     id="rect5930" />
  <rect
     x="90.708656"
     y="94.48819"
     width="1mm"
     height="1mm"
     id="rect5932" />
  <rect
     x="98.267723"
     y="94.48819"
     width="1mm"
     height="1mm"
     id="rect5934" />
  <rect
     x="102.04724"
     y="94.48819"
     width="1mm"
     height="1mm"
     id="rect5936" />
  <rect
     x="105.82678"
     y="94.48819"
     width="1mm"
     height="1mm"
     id="rect5938" />
  <rect
     x="0"
     y="98.267723"
     width="1mm"
     height="1mm"
     id="rect5940" />
  <rect
     x="7.5590553"
     y="98.267723"
     width="1mm"
     height="1mm"
     id="rect5942" />
  <rect
     x="11.338583"
     y="98.267723"
     width="1mm"
     height="1mm"
     id="rect5944" />
  <rect
     x="15.118111"
     y="98.267723"
     width="1mm"
     height="1mm"
     id="rect5946" />
  <rect
     x="22.677166"
     y="98.267723"
     width="1mm"
     height="1mm"
     id="rect5948" />
  <rect
     x="30.236221"
     y="98.267723"
     width="1mm"
     height="1mm"
     id="rect5950" />
  <rect
     x="34.015747"
     y="98.267723"
     width="1mm"
     height="1mm"
     id="rect5952" />
  <rect
     x="37.795277"
     y="98.267723"
     width="1mm"
     height="1mm"
     id="rect5954" />
  <rect
     x="41.574802"
     y="98.267723"
     width="1mm"
     height="1mm"
     id="rect5956" />
  <rect
     x="45.354332"
     y="98.267723"
     width="1mm"
     height="1mm"
     id="rect5958" />
  <rect
     x="60.472443"
     y="98.267723"
     width="1mm"
     height="1mm"
     id="rect5960" />
  <rect
     x="68.031494"
     y="98.267723"
     width="1mm"
     height="1mm"
     id="rect5962" />
  <rect
     x="71.81102"
     y="98.267723"
     width="1mm"
     height="1mm"
     id="rect5964" />
  <rect
     x="75.590553"
     y="98.267723"
     width="1mm"
     height="1mm"
     id="rect5966" />
  <rect
     x="86.929131"
     y="98.267723"
     width="1mm"
     height="1mm"
     id="rect5968" />
  <rect
     x="90.708656"
     y="98.267723"
     width="1mm"
     height="1mm"
     id="rect5970" />
  <rect
     x="94.48819"
     y="98.267723"
     width="1mm"
     height="1mm"
     id="rect5972" />
  <rect
     x="105.82678"
     y="98.267723"
     width="1mm"
     height="1mm"
     id="rect5974" />
  <rect
     x="0"
     y="102.04724"
     width="1mm"
     height="1mm"
     id="rect5976" />
  <rect
     x="22.677166"
     y="102.04724"
     width="1mm"
     height="1mm"
     id="rect5978" />
  <rect
     x="34.015747"
     y="102.04724"
     width="1mm"
     height="1mm"
     id="rect5980" />
  <rect
     x="45.354332"
     y="102.04724"
     width="1mm"
     height="1mm"
     id="rect5982" />
  <rect
     x="49.133858"
     y="102.04724"
     width="1mm"
     height="1mm"
     id="rect5984" />
  <rect
     x="52.913383"
     y="102.04724"
     width="1mm"
     height="1mm"
     id="rect5986" />
  <rect
     x="56.692909"
     y="102.04724"
     width="1mm"
     height="1mm"
     id="rect5988" />
  <rect
     x="60.472443"
     y="102.04724"
     width="1mm"
     height="1mm"
     id="rect5990" />
  <rect
     x="64.251968"
     y="102.04724"
     width="1mm"
     height="1mm"
     id="rect5992" />
  <rect
     x="71.81102"
     y="102.04724"
     width="1mm"
     height="1mm"
     id="rect5994" />
  <rect
     x="75.590553"
     y="102.04724"
     width="1mm"
     height="1mm"
     id="rect5996" />
  <rect
     x="83.149605"
     y="102.04724"
     width="1mm"
     height="1mm"
     id="rect5998" />
  <rect
     x="102.04724"
     y="102.04724"
     width="1mm"
     height="1mm"
     id="rect6000" />
  <rect
     x="0"
     y="105.82678"
     width="1mm"
     height="1mm"
     id="rect6002" />
  <rect
     x="3.7795277"
     y="105.82678"
     width="1mm"
     height="1mm"
     id="rect6004" />
  <rect
     x="7.5590553"
     y="105.82678"
     width="1mm"
     height="1mm"
     id="rect6006" />
  <rect
     x="11.338583"
     y="105.82678"
     width="1mm"
     height="1mm"
     id="rect6008" />
  <rect
     x="15.118111"
     y="105.82678"
     width="1mm"
     height="1mm"
     id="rect6010" />
  <rect
     x="18.897636"
     y="105.82678"
     width="1mm"
     height="1mm"
     id="rect6012" />
  <rect
     x="22.677166"
     y="105.82678"
     width="1mm"
     height="1mm"
     id="rect6014" />
  <rect
     x="30.236221"
     y="105.82678"
     width="1mm"
     height="1mm"
     id="rect6016" />
  <rect
     x="37.795277"
     y="105.82678"
     width="1mm"
     height="1mm"
     id="rect6018" />
  <rect
     x="52.913383"
     y="105.82678"
     width="1mm"
     height="1mm"
     id="rect6020" />
  <rect
     x="64.251968"
     y="105.82678"
     width="1mm"
     height="1mm"
     id="rect6022" />
  <rect
     x="71.81102"
     y="105.82678"
     width="1mm"
     height="1mm"
     id="rect6024" />
  <rect
     x="75.590553"
     y="105.82678"
     width="1mm"
     height="1mm"
     id="rect6026" />
  <rect
     x="83.149605"
     y="105.82678"
     width="1mm"
     height="1mm"
     id="rect6028" />
  <rect
     x="102.04724"
     y="105.82678"
     width="1mm"
     height="1mm"
     id="rect6030" />
  <rect
     x="105.82678"
     y="105.82678"
     width="1mm"
     height="1mm"
     id="rect6032" />
</svg>
